<svg width="44" height="44" viewBox="0 0 44 44" fill="none" xmlns="http://www.w3.org/2000/svg">
<rect width="44" height="44" rx="22" fill="#DBEAFE"/>
<path d="M27.25 20.519V16.75C27.25 15.9227 26.5773 15.25 25.75 15.25H14.5C13.6727 15.25 13 15.9227 13 16.75V24.25C13 25.0773 13.6727 25.75 14.5 25.75H22.9099C23.4013 27.4787 24.9908 28.75 26.875 28.75C27.6001 28.75 28.3131 28.5592 28.9379 28.1978C29.117 28.0941 29.1785 27.8649 29.0745 27.6854C28.9708 27.506 28.7412 27.4441 28.5621 27.5489C28.0516 27.844 27.4682 28 26.875 28C25.0139 28 23.5 26.4861 23.5 24.625C23.5 22.7639 25.0139 21.25 26.875 21.25C28.736 21.25 30.25 22.7639 30.25 24.625V25C30.25 25.4135 29.9134 25.75 29.5 25.75C29.0866 25.75 28.75 25.4135 28.75 25V23.5C28.75 23.4508 28.7404 23.402 28.7215 23.3565C28.7027 23.3109 28.6751 23.2696 28.6402 23.2348C28.6054 23.1999 28.5641 23.1723 28.5185 23.1535C28.473 23.1346 28.4242 23.125 28.375 23.125C28.2741 23.125 28.1835 23.1658 28.1162 23.2305C27.7847 22.9351 27.3528 22.75 26.875 22.75C25.8412 22.75 25 23.5912 25 24.625C25 25.6588 25.8412 26.5 26.875 26.5C27.4339 26.5 27.9308 26.2493 28.2746 25.8601C28.5462 26.246 28.9932 26.5 29.5 26.5C30.3273 26.5 31 25.8273 31 25V24.625C31 22.477 29.3492 20.7093 27.25 20.519ZM14.5 16H25.75C25.7656 16 25.7787 16.008 25.7941 16.0089L20.4334 20.4092C20.2426 20.5293 19.9661 20.5044 19.8419 20.4282L14.4564 16.0088C14.4716 16.0079 14.4845 16 14.5 16ZM26.5 20.519C24.4008 20.7093 22.75 22.477 22.75 24.625C22.75 24.7516 22.7578 24.8763 22.769 25H14.5C14.0866 25 13.75 24.6635 13.75 24.25V16.75C13.75 16.6438 13.7735 16.5435 13.8135 16.4519L19.3992 21.0325C19.6175 21.175 19.8683 21.25 20.125 21.25C20.3719 21.25 20.6132 21.1805 20.8256 21.0486C20.8471 21.0371 20.8673 21.0235 20.886 21.008L26.4365 16.4518C26.4766 16.5435 26.5 16.6438 26.5 16.75V20.519H26.5ZM26.875 25.75C26.2546 25.75 25.75 25.2454 25.75 24.625C25.75 24.0046 26.2546 23.5 26.875 23.5C27.4954 23.5 28 24.0046 28 24.625C28 25.2454 27.4954 25.75 26.875 25.75Z" fill="#2563EB"/>
</svg>
