<svg width="44" height="44" viewBox="0 0 44 44" fill="none" xmlns="http://www.w3.org/2000/svg">
<rect width="44" height="44" rx="22" fill="#DBEAFE"/>
<path d="M22.0004 13C18.4058 13 15.4814 15.9244 15.4814 19.5189C15.4814 23.9798 21.3152 30.5287 21.5636 30.8053C21.7969 31.0651 22.2042 31.0647 22.4371 30.8053C22.6855 30.5287 28.5193 23.9798 28.5193 19.5189C28.5192 15.9244 25.5949 13 22.0004 13ZM22.0004 29.5139C20.037 27.1817 16.6554 22.5805 16.6554 19.519C16.6554 16.5717 19.0531 14.1739 22.0004 14.1739C24.9476 14.1739 27.3453 16.5717 27.3453 19.5189C27.3453 22.5806 23.9642 27.181 22.0004 29.5139Z" fill="#2563EB"/>
<path d="M22.0005 16.239C20.192 16.239 18.7207 17.7103 18.7207 19.5188C18.7207 21.3274 20.192 22.7987 22.0005 22.7987C23.809 22.7987 25.2803 21.3274 25.2803 19.5188C25.2803 17.7103 23.809 16.239 22.0005 16.239ZM22.0005 21.6247C20.8393 21.6247 19.8946 20.6801 19.8946 19.5188C19.8946 18.3576 20.8393 17.413 22.0005 17.413C23.1617 17.413 24.1064 18.3576 24.1064 19.5188C24.1064 20.6801 23.1617 21.6247 22.0005 21.6247Z" fill="#2563EB"/>
</svg>
