<svg width="40" height="40" viewBox="0 0 40 40" fill="none" xmlns="http://www.w3.org/2000/svg">
<rect x="0.5" y="0.5" width="39" height="39" rx="3.5" fill="#FEFCE8"/>
<rect x="0.5" y="0.5" width="39" height="39" rx="3.5" stroke="#EAB308"/>
<g clip-path="url(#clip0_17024_1363)">
<path d="M24.766 18.7191C25.2467 18.397 25.5914 17.9164 25.7434 17.3492C25.9095 16.7293 25.8253 16.0835 25.5062 15.5308C25.1871 14.9781 24.6699 14.5823 24.05 14.4162C23.4829 14.2642 22.8943 14.3224 22.375 14.5776L21.0369 12.2599C20.752 11.7665 20.2404 11.479 19.6723 11.4887C19.1028 11.4991 18.6036 11.8058 18.3369 12.3092C18.1496 12.6629 17.9737 13.0303 17.7875 13.4193C17.0285 15.0046 16.1683 16.8015 14.3087 17.8752L11.9191 19.2548C11.0966 19.7297 10.5074 20.4995 10.2601 21.4225C10.0128 22.3455 10.1381 23.3069 10.613 24.1294C11.2732 25.2729 12.4751 25.9129 13.7094 25.9129C14.1683 25.913 14.623 25.8239 15.048 25.6507L16.7185 28.5441C17.0641 29.1427 17.6932 29.4777 18.3393 29.4777C18.6661 29.4778 18.9872 29.3916 19.2701 29.2278C19.7008 28.9791 20.0094 28.5762 20.1388 28.0932C20.2682 27.6102 20.2025 27.107 19.9538 26.6762L18.31 23.8292C20.0406 23.0064 21.8571 23.146 23.4744 23.271C23.9048 23.3043 24.3112 23.3357 24.7115 23.3504C25.28 23.3707 25.7961 23.0922 26.0898 22.6041C26.3836 22.116 26.389 21.5301 26.1041 21.0367L24.766 18.719L24.766 18.7191ZM23.7973 15.3594C24.1652 15.458 24.4718 15.6923 24.6605 16.0191C25.0247 16.65 24.8482 17.4469 24.2761 17.8704L22.865 15.4264C23.1571 15.2995 23.4825 15.2751 23.7973 15.3594H23.7973ZM13.7078 24.9366C12.8114 24.9365 11.9382 24.4717 11.4587 23.6411C11.1143 23.0445 11.0236 22.3463 11.2034 21.6753C11.3832 21.0042 11.8108 20.445 12.4074 20.1005L14.3744 18.9649L16.9687 23.4529L14.9994 24.5899C14.5922 24.8249 14.1473 24.9366 13.7078 24.9366ZM19.1955 27.8405C19.1337 28.0715 18.9867 28.2638 18.7819 28.3821C18.3562 28.6278 17.81 28.4815 17.5642 28.0559L15.9105 25.1914L17.4543 24.3001L19.1081 27.1646C19.2264 27.3694 19.2574 27.6095 19.1955 27.8405H19.1955ZM25.2532 22.1006C25.1421 22.2851 24.9631 22.3828 24.7472 22.3745C24.3668 22.3606 23.9699 22.3299 23.5498 22.2974C21.7848 22.1611 19.8004 22.0081 17.8228 22.9791L15.2117 18.4621C17.0436 17.2337 17.9037 15.4381 18.6683 13.841C18.8501 13.4612 19.0219 13.1024 19.1999 12.7663C19.3007 12.576 19.4748 12.469 19.6902 12.4651L19.7024 12.465C19.9122 12.465 20.0855 12.5653 20.1912 12.7483L25.2585 21.5252C25.3662 21.7117 25.3644 21.9161 25.2532 22.1006L25.2532 22.1006ZM23.9848 12.5133L24.9932 10.7667C25.128 10.5331 25.4266 10.4531 25.6601 10.588C25.8937 10.7228 25.9737 11.0215 25.8389 11.255L24.8305 13.0015C24.7985 13.0571 24.7558 13.1058 24.7049 13.1448C24.654 13.1839 24.596 13.2125 24.534 13.2291C24.4721 13.2457 24.4075 13.2499 24.3439 13.2416C24.2803 13.2332 24.219 13.2123 24.1635 13.1803C23.9299 13.0454 23.8499 12.7468 23.9848 12.5133ZM28.5181 14.3557L26.7293 15.3885C26.6738 15.4206 26.6125 15.4414 26.5489 15.4498C26.4853 15.4582 26.4207 15.4539 26.3588 15.4373C26.2968 15.4207 26.2388 15.3921 26.1879 15.3531C26.137 15.314 26.0943 15.2653 26.0623 15.2098C25.9274 14.9762 26.0075 14.6776 26.241 14.5428L28.0298 13.51C28.2633 13.3751 28.562 13.4552 28.6968 13.6887C28.8317 13.9222 28.7516 14.2209 28.5181 14.3557ZM29.8638 17.8689C29.8638 18.1385 29.6452 18.3572 29.3755 18.3572H27.3587C27.0891 18.3572 26.8705 18.1386 26.8705 17.8689C26.8705 17.5992 27.0891 17.3806 27.3587 17.3806H29.3755C29.6452 17.3806 29.8638 17.5992 29.8638 17.8689Z" fill="#EAB308"/>
</g>
<defs>
<clipPath id="clip0_17024_1363">
<rect width="20" height="20" fill="white" transform="translate(10 10)"/>
</clipPath>
</defs>
</svg>
