<svg width="40" height="40" viewBox="0 0 40 40" fill="none" xmlns="http://www.w3.org/2000/svg">
<rect x="0.5" y="0.5" width="39" height="39" rx="3.5" fill="#F0FDF4"/>
<rect x="0.5" y="0.5" width="39" height="39" rx="3.5" stroke="#22C55E"/>
<path d="M27.6411 25.9064C27.6241 25.7618 27.6116 25.6571 27.6087 25.6212C27.5969 25.4644 27.5893 25.3001 27.5813 25.1316C27.5355 24.1771 27.4788 22.9892 26.6849 22.1993C26.3359 21.8833 25.9266 21.641 25.4816 21.4872C24.3194 21.0273 23.1119 20.6914 21.8792 20.4849C21.7793 20.4657 21.676 20.4766 21.5823 20.5162C21.4886 20.5557 21.4088 20.6222 21.3529 20.7072L19.8876 22.9244L18.425 20.7074C18.3688 20.6224 18.2888 20.5559 18.195 20.5163C18.1011 20.4767 17.9977 20.4657 17.8976 20.4847C17.6867 20.5251 17.4598 20.5637 17.2234 20.6041C15.9728 20.8171 14.4166 21.0825 13.4 21.8957C13.0694 22.183 12.799 22.533 12.6046 22.9255C12.4102 23.318 12.2955 23.7452 12.2674 24.1823L12.0013 27.885C11.9937 27.9907 12.0188 28.0962 12.0733 28.187C12.1277 28.2779 12.2088 28.3498 12.3055 28.393C14.6932 29.4526 17.2765 30 19.8888 30C22.501 30 25.0843 29.4525 27.4719 28.3928C27.8943 28.2039 27.8799 27.937 27.6411 25.9064ZM19.8903 28.9688C17.5431 28.9744 15.2188 28.507 13.0562 27.5947L13.2949 24.2722C13.3443 23.7919 13.5153 23.129 14.0466 22.699C14.853 22.0541 16.2636 21.8137 17.3969 21.6204L17.7518 21.5596L19.4574 24.1441C19.5043 24.2153 19.5682 24.2737 19.6432 24.3141C19.7183 24.3545 19.8022 24.3757 19.8874 24.3757C19.9726 24.3757 20.0568 24.3546 20.1319 24.3142C20.2069 24.2738 20.2708 24.2155 20.3178 24.1443L22.0234 21.5633C23.0725 21.7528 24.1001 22.047 25.0905 22.4414C25.408 22.5477 25.7022 22.7135 25.9576 22.93C26.468 23.4378 26.5103 24.3242 26.5513 25.1811C26.5598 25.3584 26.568 25.5317 26.5802 25.6975C26.5833 25.7375 26.5973 25.8588 26.6169 26.0271C26.7045 26.7714 26.7563 27.2888 26.7716 27.5734C24.596 28.4998 22.2549 28.9745 19.8903 28.9688ZM16.7448 16.8718C16.767 16.9124 16.7893 16.9518 16.8112 16.9894C17.5283 18.2272 18.6112 18.909 19.8606 18.909C21.0926 18.909 22.1805 18.2445 22.9218 17.0411C22.9453 17.0036 22.9686 16.9652 22.9915 16.9256C23.3027 16.6852 23.5548 16.3767 23.7285 16.0237C23.9021 15.6708 23.9927 15.2828 23.9934 14.8895C23.9936 14.5339 23.9115 14.183 23.7535 13.8645C23.6318 11.6879 21.9438 10.0009 19.8606 10.0009C19.3091 9.98885 18.7623 10.1037 18.2623 10.3366C17.7623 10.5694 17.3225 10.9141 16.9768 11.3439C16.4145 12.0676 16.0917 12.9484 16.0533 13.8641C15.8951 14.1827 15.8128 14.5337 15.813 14.8895C15.811 15.2684 15.8936 15.643 16.0548 15.986C16.216 16.3289 16.4517 16.6316 16.7448 16.8718ZM17.0108 14.2594C17.0532 14.1854 17.0766 14.102 17.0789 14.0167C17.0869 13.2855 17.3314 12.5767 17.7757 11.996C18.0262 11.6864 18.3445 11.4384 18.706 11.2713C19.0674 11.1042 19.4625 11.0223 19.8606 11.032C21.4472 11.032 22.6798 12.3156 22.7279 14.0179C22.7303 14.1031 22.7537 14.1864 22.7962 14.2603C22.9062 14.4515 22.9635 14.6686 22.9622 14.8893C22.9616 15.1376 22.9013 15.3821 22.7863 15.6022C22.6713 15.8222 22.5051 16.0114 22.3016 16.1537C22.2375 16.1987 22.1845 16.2577 22.1465 16.3261C22.1141 16.3845 22.0809 16.4408 22.0455 16.4973C21.4973 17.3876 20.7214 17.8778 19.8606 17.8778C18.9944 17.8778 18.2284 17.3787 17.7023 16.4703C17.6702 16.4156 17.6384 16.3577 17.6075 16.2975C17.5717 16.2281 17.5208 16.1679 17.4583 16.1211C17.2666 15.9783 17.1111 15.7925 17.0044 15.5785C16.8977 15.3646 16.8428 15.1285 16.8442 14.8895C16.843 14.6684 16.9006 14.451 17.0108 14.2594Z" fill="#22C55E"/>
</svg>
