<svg width="40" height="40" viewBox="0 0 40 40" fill="none" xmlns="http://www.w3.org/2000/svg">
<rect x="0.5" y="0.5" width="39" height="39" rx="3.5" fill="#F5F3FF"/>
<rect x="0.5" y="0.5" width="39" height="39" rx="3.5" stroke="#8B5CF6"/>
<g clip-path="url(#clip0_17024_1398)">
<path d="M21.619 20.93C21.4029 20.7139 21.0524 20.7139 20.8363 20.93L19.5913 22.1751L17.8249 20.4087L19.0699 19.1636C19.2861 18.9474 19.2861 18.597 19.0699 18.3808C18.8538 18.1647 18.5033 18.1647 18.2872 18.3808L17.0421 19.6259L16.0466 18.6304C15.8305 18.4142 15.48 18.4142 15.2638 18.6304L13.0623 20.832C11.5281 22.3661 11.4322 24.8023 12.7746 26.4492C12.7567 26.4632 12.7391 26.478 12.7226 26.4946L10.1621 29.0551C9.94596 29.2712 9.94596 29.6217 10.1621 29.8379C10.2135 29.8893 10.2745 29.9302 10.3416 29.958C10.4088 29.9858 10.4808 30.0001 10.5535 30C10.6951 30 10.8368 29.9459 10.9449 29.8379L13.5054 27.2774C13.5216 27.261 13.5367 27.2436 13.5507 27.2253C14.3193 27.8518 15.2597 28.165 16.2001 28.165C17.2749 28.165 18.3497 27.7559 19.1679 26.9376L21.3695 24.7361C21.5857 24.5199 21.5857 24.1694 21.3695 23.9533L20.374 22.9578L21.619 21.7128C21.8352 21.4966 21.8352 21.1461 21.619 20.93ZM18.3852 26.1549C17.1803 27.3597 15.22 27.3597 14.0151 26.1549L13.8451 25.9849C12.6403 24.78 12.6403 22.8196 13.8451 21.6148L15.6553 19.8046L20.1954 24.3447L18.3852 26.1549ZM29.8378 10.9449C30.054 10.7288 30.054 10.3783 29.8378 10.1621C29.6217 9.94596 29.2712 9.94596 29.0551 10.1621L26.4946 12.7226C26.478 12.7391 26.4633 12.7566 26.4493 12.7746C25.7027 12.1647 24.7768 11.833 23.7998 11.833C22.6787 11.833 21.6247 12.2696 20.832 13.0623L18.6304 15.2639C18.4142 15.4801 18.4142 15.8305 18.6304 16.0467L23.9533 21.3695C24.0047 21.4209 24.0657 21.4617 24.1329 21.4895C24.2 21.5174 24.272 21.5317 24.3447 21.5317C24.4174 21.5317 24.4894 21.5174 24.5565 21.4895C24.6237 21.4617 24.6847 21.4209 24.7361 21.3695L26.9376 19.1679C27.7304 18.3752 28.1669 17.3212 28.1669 16.2002C28.1669 15.2232 27.8353 14.2972 27.2254 13.5507C27.2436 13.5367 27.2609 13.5215 27.2773 13.5054L29.8378 10.9449ZM26.1549 18.3852L24.3447 20.1954L19.8046 15.6553L21.6147 13.8451C22.1984 13.2614 22.9744 12.94 23.7998 12.94C24.6252 12.94 25.4012 13.2614 25.9848 13.8451L26.1548 14.0151C26.7385 14.5987 27.0599 15.3747 27.0599 16.2001C27.0599 17.0256 26.7385 17.8015 26.1549 18.3852Z" fill="#8B5CF6"/>
<path d="M24.6118 17.6847L22.3153 15.3882C22.0992 15.172 21.7486 15.172 21.5325 15.3882C21.3163 15.6044 21.3163 15.9548 21.5325 16.171L23.829 18.4675C23.8804 18.519 23.9414 18.5598 24.0085 18.5876C24.0757 18.6154 24.1477 18.6297 24.2204 18.6296C24.362 18.6296 24.5037 18.5756 24.6118 18.4675C24.8279 18.2513 24.8279 17.9009 24.6118 17.6847ZM18.5214 23.7751L16.2249 21.4786C16.0088 21.2624 15.6583 21.2624 15.4421 21.4786C15.226 21.6947 15.226 22.0452 15.4422 22.2613L17.7387 24.5579C17.79 24.6093 17.851 24.6501 17.9182 24.678C17.9854 24.7058 18.0574 24.7201 18.1301 24.72C18.2717 24.72 18.4134 24.6659 18.5214 24.5579C18.7376 24.3417 18.7376 23.9912 18.5214 23.7751Z" fill="#8B5CF6"/>
</g>
<defs>
<clipPath id="clip0_17024_1398">
<rect width="20" height="20" fill="white" transform="translate(10 10)"/>
</clipPath>
</defs>
</svg>
