<svg width="40" height="40" viewBox="0 0 40 40" fill="none" xmlns="http://www.w3.org/2000/svg">
<rect x="0.5" y="0.5" width="39" height="39" rx="3.5" fill="#F0FDF4"/>
<rect x="0.5" y="0.5" width="39" height="39" rx="3.5" stroke="#22C55E"/>
<g clip-path="url(#clip0_15056_262)">
<path d="M20.0333 16.9776C20.3086 16.9776 20.5315 16.7546 20.5315 16.4794C20.5315 16.2043 20.3086 15.9812 20.0333 15.9812C17.8322 15.9812 16.0479 17.7656 16.0479 19.9668C16.0479 22.1679 17.8322 23.9523 20.0333 23.9523C22.2345 23.9523 24.0189 22.1679 24.0189 19.9668C24.0189 19.6916 23.7958 19.4686 23.5207 19.4686C23.2456 19.4686 23.0225 19.6916 23.0225 19.9668C23.0225 21.6176 21.6843 22.956 20.0333 22.956C18.3825 22.956 17.0441 21.6176 17.0441 19.9668C17.0441 18.3158 18.3825 16.9776 20.0333 16.9776Z" fill="#22C55E"/>
<path d="M29.539 17.0076C29.4525 16.7462 29.1705 16.6045 28.9089 16.691C28.6535 16.7755 28.5113 17.0474 28.5875 17.3054C30.0773 22.0499 27.4391 27.1037 22.6947 28.5936C17.9504 30.0834 12.8965 27.4452 11.4067 22.7008C9.91667 17.9564 12.5551 12.9025 17.2993 11.4127C19.0555 10.8612 20.9385 10.8612 22.6947 11.4127C22.9583 11.4921 23.2365 11.3429 23.316 11.0793C23.3943 10.8195 23.2507 10.545 22.9927 10.4611C17.7246 8.80829 12.1139 11.7391 10.4611 17.0073C8.80828 22.2754 11.7392 27.886 17.0073 29.5388C22.2755 31.1917 27.886 28.2609 29.5388 22.9927C30.1501 21.0445 30.1501 18.9558 29.539 17.0076H29.539Z" fill="#22C55E"/>
<path d="M20.982 13.5592C20.9846 13.2756 20.7667 13.0385 20.4838 13.0173C20.335 13.0046 20.1861 12.9919 20.0334 12.9919C16.1813 12.9919 13.0586 16.1146 13.0586 19.9667C13.0586 23.8187 16.1813 26.9414 20.0334 26.9414C23.8853 26.9414 27.008 23.8187 27.008 19.9667C27.008 19.7865 26.997 19.6065 26.9749 19.4276C26.9351 19.1542 26.6812 18.9648 26.4077 19.0047C26.1343 19.0443 25.9449 19.2984 25.9846 19.5719C25.9861 19.5822 25.988 19.5924 25.9901 19.6028C26.0009 19.7235 26.0116 19.8431 26.0116 19.9664C26.0118 23.2683 23.3352 25.9448 20.0335 25.9451C16.7317 25.9453 14.0551 23.2685 14.055 19.9669C14.0548 16.6652 16.7312 13.9885 20.0331 13.9883H20.0332C20.1568 13.9883 20.2766 13.999 20.397 14.0097L20.4904 14.0175C20.7507 14.0286 20.9707 13.8266 20.9817 13.5663C20.9819 13.5638 20.9819 13.5616 20.982 13.5592Z" fill="#22C55E"/>
<path d="M23.0223 14.4865V16.273L19.6809 19.6144C19.483 19.8056 19.4775 20.121 19.6687 20.3189C19.8599 20.5168 20.1753 20.5223 20.3732 20.3311C20.3773 20.3271 20.3814 20.323 20.3854 20.3189L23.7268 16.9775H25.5133C25.6454 16.9775 25.772 16.925 25.8656 16.8315L28.8547 13.8423C29.0492 13.6477 29.0492 13.3324 28.8547 13.1378C28.8084 13.0915 28.7535 13.0548 28.6931 13.0298C28.6327 13.0048 28.5679 12.9919 28.5025 12.9919H27.0079V11.4973C27.0079 11.2222 26.7848 10.9991 26.5095 10.9993C26.3775 10.9993 26.2509 11.0518 26.1575 11.1451L23.1683 14.1343C23.122 14.1806 23.0853 14.2355 23.0602 14.2959C23.0352 14.3563 23.0223 14.4211 23.0223 14.4865ZM24.0187 14.6928L26.0115 12.7V13.4901C26.0115 13.7652 26.2345 13.9883 26.5097 13.9883H27.2998L25.307 15.9811H24.0187V14.6928Z" fill="#22C55E"/>
</g>
<defs>
<clipPath id="clip0_15056_262">
<rect width="20" height="20" fill="white" transform="translate(10 10)"/>
</clipPath>
</defs>
</svg>
