<svg width="40" height="40" viewBox="0 0 40 40" fill="none" xmlns="http://www.w3.org/2000/svg">
<rect x="0.5" y="0.5" width="39" height="39" rx="3.5" fill="#F0FDFA"/>
<rect x="0.5" y="0.5" width="39" height="39" rx="3.5" stroke="#14B8A6"/>
<path d="M28.15 21.5603L27.6314 21.4503L24.2324 15.7963L24.3576 15.2987L29.1292 12.4551L29.5 13.0773L25.0408 15.7349L28.052 20.7439L28.9922 20.0847L29.4082 20.6777L28.15 21.5603ZM11.85 21.5603L10.592 20.6779L11.008 20.0849L11.948 20.7441L14.9594 15.7349L10.5 13.0773L10.8708 12.4551L15.6424 15.2987L15.7676 15.7963L12.3686 21.4503L11.85 21.5603Z" fill="#14B8A6"/>
<path d="M25.3672 24.021C25.1673 24.0208 24.9707 23.9706 24.7952 23.875L21.863 22.285L22.2082 21.6482L25.1416 23.2386C25.3362 23.3444 25.587 23.2954 25.726 23.1306C25.868 22.9626 25.8754 22.713 25.743 22.538C25.7217 22.511 25.6977 22.4861 25.6716 22.4638L23.1692 20.3504L20.654 18.7896C20.5627 18.7333 20.4604 18.6971 20.3541 18.6834C20.2477 18.6696 20.1396 18.6785 20.037 18.7096L19.2436 18.9504L18.389 19.8888C18.1638 20.1355 17.8706 20.31 17.5464 20.3904C17.2221 20.4708 16.8814 20.4535 16.567 20.3406C16.4274 20.2907 16.3003 20.211 16.1948 20.1068C16.0893 20.0027 16.0079 19.8767 15.9562 19.7378C15.9039 19.5984 15.8828 19.4493 15.8944 19.3009C15.9059 19.1525 15.9498 19.0084 16.023 18.8788L17.2562 16.6908L17.4608 16.5232C18.661 16.1356 19.8732 15.8898 21.1672 15.772L21.2912 15.7822L24 16.4886L24.938 16.1366L25.192 16.815L24.147 17.207L23.9284 17.2184L21.17 16.4992C20.0022 16.6098 18.9034 16.8296 17.818 17.1698L16.654 19.2344C16.6326 19.2721 16.6198 19.314 16.6164 19.3572C16.6131 19.4004 16.6194 19.4439 16.6348 19.4844C16.6528 19.5322 16.6994 19.6184 16.8114 19.6584C17.1764 19.79 17.5966 19.6832 17.853 19.4012L18.775 18.3888L18.9376 18.2862L19.8276 18.0156C20.0287 17.9551 20.2403 17.9379 20.4485 17.9652C20.6567 17.9924 20.8568 18.0634 21.0356 18.1736L23.616 19.7796L26.138 21.9096C26.1996 21.9612 26.258 22.022 26.3154 22.0942C26.661 22.551 26.644 23.1668 26.279 23.5986C26.1669 23.7311 26.0272 23.8376 25.8697 23.9106C25.7122 23.9835 25.5408 24.0212 25.3672 24.021Z" fill="#14B8A6"/>
<path d="M26.2456 22.6118L25.8182 22.0268C26.3972 21.605 26.9149 21.105 27.3566 20.541L27.9274 20.9874C27.4444 21.6039 26.8785 22.1505 26.2456 22.6118ZM24.2044 25.3506C24.0104 25.3506 23.816 25.3008 23.642 25.207L20.8576 23.707L21.2014 23.0692L23.986 24.5692C24.1786 24.6738 24.4138 24.6252 24.5528 24.4658C24.6342 24.3718 24.6734 24.2506 24.6624 24.1254C24.6573 24.064 24.6397 24.0042 24.6107 23.9497C24.5818 23.8953 24.5421 23.8473 24.494 23.8086L24.1108 23.4964L24.5684 22.9348L24.9508 23.2464C25.0744 23.3459 25.1765 23.4695 25.251 23.6096C25.3254 23.7497 25.3707 23.9035 25.384 24.0616C25.3986 24.2198 25.3809 24.3793 25.332 24.5304C25.2832 24.6816 25.2042 24.8213 25.0998 24.941C24.9885 25.0693 24.851 25.1723 24.6965 25.2429C24.5421 25.3136 24.3743 25.3503 24.2044 25.3506Z" fill="#14B8A6"/>
<path d="M23.0936 26.5694C22.9313 26.5688 22.771 26.5335 22.6236 26.4658L19.9352 25.217L20.2404 24.56L22.9272 25.808C23.0838 25.8794 23.2736 25.8396 23.3842 25.7174C23.4532 25.6425 23.4904 25.5438 23.4878 25.442C23.4852 25.3402 23.4431 25.2434 23.3704 25.1722L23.132 24.936L23.6418 24.4214L23.8794 24.6568C24.086 24.8591 24.2057 25.1338 24.2133 25.4229C24.2209 25.7119 24.1157 25.9925 23.92 26.2054C23.8151 26.3202 23.6874 26.4118 23.5452 26.4745C23.4029 26.5372 23.2491 26.5695 23.0936 26.5694Z" fill="#14B8A6"/>
<path d="M21.497 27.4672C21.3612 27.4673 21.2262 27.4457 21.0972 27.4032C20.4054 27.179 19.6486 26.8888 18.7842 26.5172L19.0702 25.8516C19.9142 26.2146 20.6504 26.4966 21.3216 26.7144C21.5704 26.7958 21.8404 26.6944 21.9804 26.4684L22.0284 26.3934C22.0948 26.286 22.1225 26.1591 22.1072 26.0338L22.8268 25.951C22.8599 26.2404 22.7944 26.5325 22.6408 26.78L22.5936 26.854C22.4783 27.0412 22.317 27.1958 22.125 27.3032C21.9331 27.4105 21.7169 27.467 21.497 27.4672ZM17.3878 17.3942C16.2568 17.1158 15.374 16.7206 14.9486 16.51L15.27 15.8606C15.669 16.0584 16.4972 16.4288 17.5608 16.6906L17.3878 17.3942ZM13.1048 22.6854C12.698 22.2342 12.2602 21.5738 11.9644 21.0992L12.5792 20.7158C12.8086 21.0842 13.2522 21.7668 13.6428 22.2006L13.1048 22.6854Z" fill="#14B8A6"/>
<path d="M13.8106 24.4071C13.4112 24.4071 13.0266 24.2025 12.8262 23.8419L12.8126 23.8145C12.6788 23.5687 12.6538 23.2513 12.75 22.9559C12.8386 22.6921 12.964 22.4421 13.1224 22.2133C13.286 21.9707 13.498 21.7301 13.7504 21.5011C13.9714 21.3002 14.2619 21.1932 14.5604 21.2027C14.7168 21.2075 14.8706 21.2445 15.0121 21.3112C15.1537 21.378 15.28 21.4731 15.3832 21.5907C15.511 21.7388 15.5988 21.9171 15.6384 22.1087C15.6779 22.3002 15.6679 22.4987 15.6092 22.6853L14.9186 22.4657C14.94 22.3977 14.9437 22.3254 14.9294 22.2556C14.915 22.1858 14.8831 22.1208 14.8366 22.0667C14.7993 22.024 14.7536 21.9895 14.7022 21.9654C14.6509 21.9413 14.5951 21.9281 14.5384 21.9267C14.4278 21.9279 14.3198 21.9627 14.2368 22.0379C14.0278 22.2275 13.854 22.4239 13.7208 22.6213C13.6007 22.7942 13.5055 22.9832 13.4382 23.1827C13.4042 23.2859 13.4108 23.3983 13.4556 23.4813L13.4654 23.5005C13.5748 23.6973 13.8382 23.7257 14.0156 23.6321L14.352 24.2737C14.185 24.3614 13.9992 24.4072 13.8106 24.4071ZM17.7838 27.5447C17.7492 27.5447 17.7144 27.5433 17.6798 27.5401C17.3176 27.5077 17.0054 27.3133 16.8236 27.0069L16.8264 27.0049L16.8062 26.9779C16.6676 26.7413 16.6332 26.4249 16.7204 26.1247C16.7914 25.8847 16.897 25.6507 17.0346 25.4277L17.6512 25.8081C17.5472 25.9767 17.468 26.1517 17.4156 26.3285C17.384 26.4371 17.3928 26.5467 17.4398 26.6273L17.4392 26.6277L17.4466 26.6369C17.531 26.7793 17.6694 26.8117 17.7444 26.8185C17.8141 26.825 17.8844 26.8149 17.9494 26.7889C18.0144 26.7629 18.0724 26.7219 18.1184 26.6691C18.3206 26.4371 18.4878 26.1933 18.6246 25.9853C18.6904 25.8853 18.7562 25.7823 18.8224 25.6793C18.9242 25.5197 18.9064 25.3119 18.778 25.1745C18.6222 25.0045 18.342 25.0017 18.178 25.1615C18.1542 25.1835 18.14 25.1979 18.1258 25.2133L17.5912 24.7245C17.6202 24.6925 17.6492 24.6635 17.6808 24.6345C17.8937 24.4292 18.1784 24.315 18.4742 24.3163C18.7918 24.3163 19.0962 24.4499 19.3098 24.6825C19.6614 25.0597 19.7128 25.6309 19.4326 26.0695C19.365 26.1751 19.2976 26.2801 19.2302 26.3829C19.0794 26.6121 18.8946 26.8809 18.6648 27.1445C18.5551 27.2703 18.4197 27.3711 18.2677 27.4401C18.1157 27.5092 17.9507 27.5448 17.7838 27.5447Z" fill="#14B8A6"/>
<path d="M14.79 25.526C14.7064 25.526 14.6236 25.5178 14.5428 25.5014C14.1876 25.4286 13.9088 25.1974 13.7776 24.867L13.7792 24.8664L13.7726 24.8494L13.7706 24.8502C13.6312 24.4898 13.6694 24.079 13.8706 23.7788C14.2042 23.2802 14.5974 22.8084 14.9778 22.3522C15.0686 22.2432 15.1592 22.1348 15.2486 22.0262C15.3568 21.8939 15.491 21.7851 15.6428 21.7066C15.7946 21.6281 15.9609 21.5815 16.1314 21.5696C16.4696 21.5432 16.7994 21.6518 17.0348 21.864C17.0912 21.915 17.1396 21.9686 17.1824 22.028C17.5078 22.4766 17.4558 23.1494 17.0556 23.6636C16.6896 24.1332 16.3244 24.602 15.8884 25.042L15.888 25.0422C15.5804 25.352 15.177 25.526 14.79 25.526ZM14.447 24.5914L14.4506 24.5994C14.4926 24.7046 14.5702 24.7674 14.6882 24.7914C14.9044 24.836 15.1732 24.7338 15.3742 24.5316C15.7798 24.1226 16.1156 23.6912 16.4714 23.2348C16.684 22.9614 16.731 22.6394 16.5954 22.4528C16.582 22.4343 16.5666 22.4173 16.5496 22.4022C16.463 22.324 16.323 22.281 16.1848 22.2922C16.1119 22.2968 16.0408 22.3164 15.9759 22.3499C15.911 22.3834 15.8538 22.43 15.8078 22.4868C15.717 22.5968 15.6258 22.7066 15.5344 22.8162C15.1658 23.258 14.785 23.7148 14.4724 24.1816C14.392 24.3018 14.4014 24.4726 14.4462 24.5886L14.447 24.5914Z" fill="#14B8A6"/>
<path d="M16.125 26.8049C16.047 26.8049 15.9694 26.7975 15.893 26.7833C15.5274 26.7135 15.2348 26.4821 15.09 26.1483L15.0832 26.1315L15.0826 26.1317C14.9582 25.8375 14.9706 25.4761 15.117 25.1403C15.3834 24.5229 15.822 23.9567 16.4578 23.4107C16.9738 22.9677 17.7022 22.9407 18.1524 23.3463C18.208 23.3963 18.2556 23.4485 18.298 23.5055C18.63 23.9485 18.6006 24.5999 18.2252 25.0883L18.2122 25.1051C17.8878 25.5265 17.5522 25.9625 17.1458 26.3691L17.1454 26.3697C16.8664 26.6483 16.4914 26.8049 16.125 26.8049ZM15.7502 25.8505L15.7546 25.8601C15.817 26.0033 15.9382 26.0541 16.029 26.0715C16.2306 26.1097 16.4622 26.0279 16.6336 25.8571C17.0068 25.4831 17.3136 25.0849 17.6382 24.6631L17.651 24.6467C17.8288 24.4151 17.856 24.1239 17.7172 23.9387C17.7025 23.9189 17.6857 23.9006 17.6672 23.8843C17.4868 23.7215 17.1698 23.7543 16.93 23.9603C16.3794 24.4329 16.004 24.9133 15.782 25.4283C15.7148 25.5823 15.703 25.7391 15.75 25.8499L15.7502 25.8505Z" fill="#14B8A6"/>
</svg>
