<svg width="40" height="40" viewBox="0 0 40 40" fill="none" xmlns="http://www.w3.org/2000/svg">
<rect x="0.5" y="0.5" width="39" height="39" rx="3.5" fill="#FEF2F2"/>
<rect x="0.5" y="0.5" width="39" height="39" rx="3.5" stroke="#EF4444"/>
<g clip-path="url(#clip0_17024_1353)">
<path d="M21.332 26.4013C21.3979 26.4017 21.4632 26.389 21.5242 26.364C21.5852 26.339 21.6406 26.3023 21.6873 26.2558C21.734 26.2093 21.7711 26.1541 21.7964 26.0933C21.8217 26.0324 21.8347 25.9672 21.8347 25.9013V22.3466L22.85 23.1566C23.362 23.5613 23.984 22.7853 23.4734 22.3746L21.6467 20.9173C21.5564 20.8498 21.4467 20.8134 21.3339 20.8135C21.2212 20.8136 21.1115 20.8503 21.0214 20.918L19.1947 22.3753C18.686 22.784 19.304 23.5633 19.818 23.1573L20.8334 22.3473V25.9C20.8332 25.9656 20.8459 26.0307 20.8709 26.0914C20.8959 26.1522 20.9326 26.2074 20.9789 26.2539C21.0252 26.3005 21.0802 26.3375 21.1408 26.3627C21.2014 26.388 21.2664 26.4011 21.332 26.4013Z" fill="#EF4444"/>
<path d="M26.668 14.4607H21.566C21.2034 14.4616 20.8464 14.3711 20.528 14.1976C20.2096 14.0241 19.9399 13.7732 19.744 13.4681L19.064 12.4107C18.7783 11.9639 18.3846 11.5964 17.9192 11.3421C17.4537 11.0878 16.9317 10.9551 16.4014 10.9561H13.3347C12.4952 10.9571 11.6903 11.2911 11.0967 11.8847C10.5031 12.4784 10.1691 13.2832 10.168 14.1227V23.8801C10.1747 24.5321 11.1627 24.5361 11.168 23.8801V14.1227C11.1687 13.5483 11.3972 12.9976 11.8034 12.5914C12.2096 12.1853 12.7603 11.9568 13.3347 11.9561H16.4014C16.7641 11.9554 17.1211 12.0462 17.4396 12.2199C17.758 12.3936 18.0276 12.6447 18.2234 12.9501L18.9034 14.0081C19.1894 14.4544 19.5833 14.8215 20.0487 15.0754C20.514 15.3293 21.0359 15.4618 21.566 15.4607H26.668C27.2424 15.4614 27.7931 15.6899 28.1993 16.0961C28.6055 16.5023 28.834 17.053 28.8347 17.6274V25.2134C28.8338 25.9646 28.535 26.6847 28.0039 27.2159C27.4727 27.747 26.7525 28.0458 26.0014 28.0467H13.5787C13.0434 28.0501 12.6374 27.5181 12.7787 27.0027L14.4034 20.7827C14.5245 20.3185 14.7961 19.9075 15.1757 19.6141C15.5554 19.3207 16.0216 19.1615 16.5014 19.1614H27.3347C27.9834 19.1607 27.9927 18.1634 27.3347 18.1614H16.5014C15.8004 18.1608 15.1191 18.3927 14.5641 18.8209C14.0091 19.249 13.6119 19.8492 13.4347 20.5274L11.81 26.7474C11.496 27.8834 12.396 29.0521 13.5727 29.0441H25.9987C27.015 29.0428 27.9893 28.6386 28.7079 27.9199C29.4265 27.2013 29.8308 26.227 29.832 25.2107V17.6274C29.831 16.7883 29.4974 15.9839 28.9043 15.3903C28.3113 14.7968 27.5071 14.4625 26.668 14.4607Z" fill="#EF4444"/>
</g>
<defs>
<clipPath id="clip0_17024_1353">
<rect width="20" height="20" fill="white" transform="translate(10 10)"/>
</clipPath>
</defs>
</svg>
