<svg width="40" height="40" viewBox="0 0 40 40" fill="none" xmlns="http://www.w3.org/2000/svg">
<rect x="0.5" y="0.5" width="39" height="39" rx="3.5" fill="#EFF6FF"/>
<rect x="0.5" y="0.5" width="39" height="39" rx="3.5" stroke="#3B82F6"/>
<path d="M15.7581 24.8969C15.6089 24.8969 15.4659 24.9561 15.3604 25.0616C15.2549 25.1671 15.1956 25.3102 15.1956 25.4594C15.1956 25.6085 15.2549 25.7516 15.3604 25.8571C15.4659 25.9626 15.6089 26.0219 15.7581 26.0219H20.0312C20.1804 26.0219 20.3235 25.9626 20.429 25.8571C20.5345 25.7516 20.5937 25.6085 20.5937 25.4594C20.5937 25.3102 20.5345 25.1671 20.429 25.0616C20.3235 24.9561 20.1804 24.8969 20.0312 24.8969H15.7581ZM24.2419 19.6519H15.7587C15.6096 19.6519 15.4665 19.7111 15.361 19.8166C15.2555 19.9221 15.1962 20.0652 15.1962 20.2144C15.1962 20.3635 15.2555 20.5066 15.361 20.6121C15.4665 20.7176 15.6096 20.7769 15.7587 20.7769H24.2419C24.3911 20.7769 24.5341 20.7176 24.6396 20.6121C24.7451 20.5066 24.8044 20.3635 24.8044 20.2144C24.8044 20.0652 24.7451 19.9221 24.6396 19.8166C24.5341 19.7111 24.3911 19.6519 24.2419 19.6519ZM24.805 22.8375C24.805 22.6883 24.7457 22.5452 24.6402 22.4397C24.5348 22.3342 24.3917 22.275 24.2425 22.275H15.7587C15.6096 22.275 15.4665 22.3342 15.361 22.4397C15.2555 22.5452 15.1962 22.6883 15.1962 22.8375C15.1962 22.9867 15.2555 23.1297 15.361 23.2352C15.4665 23.3407 15.6096 23.4 15.7587 23.4H24.2419C24.3158 23.4001 24.389 23.3856 24.4573 23.3573C24.5256 23.3291 24.5877 23.2877 24.64 23.2354C24.6923 23.1832 24.7338 23.1212 24.7621 23.0529C24.7904 22.9846 24.805 22.9114 24.805 22.8375Z" fill="#3B82F6"/>
<path d="M25.9688 12.9369H20.5731C20.4239 12.9369 20.2809 12.9961 20.1754 13.1016C20.0699 13.2071 20.0106 13.3502 20.0106 13.4994C20.0106 13.6486 20.0699 13.7916 20.1754 13.8971C20.2809 14.0026 20.4239 14.0619 20.5731 14.0619H25.9688C26.5719 14.0619 27.0625 14.5494 27.0625 15.1494V27.0938C27.0625 27.6969 26.5719 28.1875 25.9688 28.1875H14.0312C13.4281 28.1875 12.9375 27.6969 12.9375 27.0938V15.15C12.9375 14.55 13.4281 14.0625 14.0312 14.0625H17.5075V15.9538C17.5075 16.0618 17.4646 16.1655 17.3881 16.2419C17.3117 16.3183 17.2081 16.3613 17.1 16.3613C16.9919 16.3613 16.8883 16.3183 16.8119 16.2419C16.7354 16.1655 16.6925 16.0618 16.6925 15.9538V15.37C16.6925 15.2208 16.6332 15.0777 16.5277 14.9723C16.4223 14.8668 16.2792 14.8075 16.13 14.8075C15.9808 14.8075 15.8377 14.8668 15.7323 14.9723C15.6268 15.0777 15.5675 15.2208 15.5675 15.37V15.9544C15.5675 16.8 16.2556 17.4875 17.1006 17.4875C17.9456 17.4875 18.6337 16.7994 18.6337 15.9544V12.6406C18.6337 11.5638 17.7575 10.6875 16.6806 10.6875C15.6037 10.6875 14.7269 11.5638 14.7269 12.6406V12.9375H14.0312C13.4437 12.9373 12.88 13.1702 12.4639 13.5851C12.0479 14 11.8134 14.563 11.8119 15.1506V27.0938C11.8125 27.6822 12.0466 28.2463 12.4626 28.6624C12.8787 29.0784 13.4428 29.3125 14.0312 29.3131H25.9688C26.5572 29.3125 27.1213 29.0784 27.5374 28.6624C27.9534 28.2463 28.1875 27.6822 28.1881 27.0938V15.15C28.1866 14.5624 27.9521 13.9994 27.5361 13.5845C27.12 13.1696 26.5563 12.9367 25.9688 12.9369ZM15.8525 12.6406C15.8525 12.1844 16.2238 11.8131 16.6794 11.8131C17.1356 11.8131 17.5069 12.1844 17.5069 12.6406V12.9375H15.8525V12.6406Z" fill="#3B82F6"/>
</svg>
