<svg width="96" height="96" viewBox="0 0 96 96" fill="none" xmlns="http://www.w3.org/2000/svg">
<rect width="96" height="96" rx="12" fill="#2563EB" fill-opacity="0.05"/>
<g clip-path="url(#clip0_17248_10037)">
<path d="M48 80C45.8616 80.0016 43.7487 79.5348 41.8101 78.6322C39.8714 77.7297 38.154 76.4135 36.7787 74.776C32.672 75.2453 28.44 73.696 25.3733 70.6293C23.8605 69.1174 22.697 67.2926 21.9645 65.2831C21.232 63.2736 20.9483 61.1282 21.1333 58.9973C17.904 56.4267 16 52.336 16 48C16 43.664 17.904 39.5733 21.2267 36.7787C20.76 32.68 22.3067 28.44 25.3733 25.3733C26.8826 23.8576 28.7066 22.6921 30.7162 21.9594C32.7259 21.2267 34.872 20.9447 37.0027 21.1333C39.5733 17.9067 43.664 16 48 16C52.336 16 56.4267 17.904 59.2213 21.224C63.3333 20.7627 67.56 22.304 70.6267 25.3707C72.1395 26.8826 73.303 28.7074 74.0355 30.7169C74.768 32.7264 75.0517 34.8719 74.8667 37.0027C78.096 39.5733 80 43.664 80 48C80 52.336 78.096 56.4267 74.7733 59.2213C75.24 63.32 73.6933 67.56 70.6267 70.6267C69.1142 72.1379 67.2897 73.3004 65.2809 74.0328C63.2722 74.7652 61.1276 75.0498 58.9973 74.8667C56.4267 78.0933 52.336 80 48 80ZM36.9947 69.536C38.4907 69.536 39.8773 70.1787 40.856 71.3387C42.6373 73.4533 45.24 74.6667 48 74.6667C50.76 74.6667 53.3627 73.4533 55.144 71.3387C56.2187 70.0613 57.784 69.416 59.4533 69.552C60.8096 69.67 62.1752 69.4897 63.4543 69.0238C64.7334 68.5578 65.895 67.8176 66.8577 66.855C67.8203 65.8924 68.5605 64.7307 69.0264 63.4516C69.4924 62.1725 69.6727 60.8069 69.5547 59.4507C69.4795 58.6408 69.603 57.8249 69.9143 57.0735C70.2256 56.3222 70.7154 55.658 71.3413 55.1387C72.3841 54.2636 73.2226 53.1708 73.7978 51.9371C74.3731 50.7034 74.6712 49.3586 74.6712 47.9973C74.6712 46.6361 74.3731 45.2913 73.7978 44.0576C73.2226 42.8238 72.3841 41.731 71.3413 40.856C70.7158 40.3363 70.2262 39.6722 69.9149 38.9209C69.6036 38.1696 69.48 37.3538 69.5547 36.544C69.7893 33.7893 68.808 31.0907 66.856 29.1413C64.904 27.192 62.1947 26.224 59.456 26.4427C58.6463 26.519 57.8302 26.3964 57.0787 26.0855C56.3272 25.7746 55.663 25.2848 55.144 24.6587C53.3627 22.544 50.76 21.3307 48 21.3307C45.24 21.3307 42.6373 22.544 40.856 24.6587C40.3345 25.2813 39.6705 25.7689 38.9202 26.08C38.17 26.391 37.3557 26.5164 36.5467 26.4453C35.1904 26.3247 33.8241 26.5039 32.5448 26.9703C31.2655 27.4366 30.1044 28.1788 29.144 29.144C28.1813 30.1063 27.4409 31.2676 26.9747 32.5464C26.5085 33.8252 26.3278 35.1906 26.4453 36.5467C26.5205 37.3565 26.397 38.1724 26.0857 38.9238C25.7744 39.6752 25.2846 40.3393 24.6587 40.8587C23.6159 41.7337 22.7774 42.8265 22.2022 44.0602C21.6269 45.294 21.3288 46.6387 21.3288 48C21.3288 49.3613 21.6269 50.706 22.2022 51.9398C22.7774 53.1735 23.6159 54.2663 24.6587 55.1413C25.936 56.216 26.5893 57.7893 26.4453 59.4533C26.3271 60.8095 26.5074 62.175 26.9737 63.454C27.4399 64.7329 28.1807 65.8941 29.144 66.856C30.1092 67.8139 31.2705 68.5512 32.548 69.0171C33.8255 69.4829 35.1888 69.6664 36.544 69.5547C36.696 69.5413 36.8453 69.536 36.9947 69.536ZM50.136 56.36L62.7733 44.1787C63.2826 43.6875 63.5758 43.0141 63.5885 42.3068C63.6013 41.5994 63.3325 40.9159 62.8413 40.4067C62.3502 39.8975 61.6768 39.6042 60.9694 39.5915C60.262 39.5787 59.5785 39.8475 59.0693 40.3387L46.3973 52.5547C45.3547 53.5973 43.672 53.5973 42.5573 52.488L36.4827 46.8427C35.962 46.3771 35.2795 46.1345 34.5818 46.1668C33.8841 46.1991 33.2269 46.5039 32.7516 47.0156C32.2762 47.5273 32.0205 48.2051 32.0396 48.9033C32.0586 49.6014 32.3508 50.2643 32.8533 50.7493L38.8587 56.328C39.6029 57.0726 40.4868 57.663 41.4596 58.0652C42.4325 58.4675 43.4752 58.6737 44.528 58.672C46.568 58.672 48.5973 57.9013 50.1387 56.3627L50.136 56.36Z" fill="#2563EB"/>
</g>
<defs>
<clipPath id="clip0_17248_10037">
<rect width="64" height="64" fill="white" transform="translate(16 16)"/>
</clipPath>
</defs>
</svg>
