<svg width="40" height="40" viewBox="0 0 40 40" fill="none" xmlns="http://www.w3.org/2000/svg">
<rect x="0.5" y="0.5" width="39" height="39" rx="3.5" fill="#FEFCE8"/>
<rect x="0.5" y="0.5" width="39" height="39" rx="3.5" stroke="#EAB308"/>
<g clip-path="url(#clip0_15056_282)">
<path d="M14.1313 22.5796L20.0001 29.01L23.6198 25.0438" stroke="#EAB308" stroke-width="0.8" stroke-miterlimit="10" stroke-linecap="round" stroke-linejoin="round"/>
<path d="M16.0283 18.4803L20 14.071L23.9718 18.4803L25.6371 14.071M20 29.01L23.8978 18.481H16.1023L20 29.01Z" stroke="#EAB308" stroke-width="0.8" stroke-miterlimit="10" stroke-linecap="round" stroke-linejoin="round"/>
<path d="M12.8382 21.1627L10.3906 18.4808L14.3629 14.0709M14.3629 14.0709H25.6371L29.6094 18.4808L25.9896 22.447M14.3629 14.0709L16.0283 18.4801M27.5 10.99C27.5 11.4929 27.0923 11.9005 26.5895 11.9005C27.0923 11.9005 27.5 12.3082 27.5 12.8111C27.5 12.3082 27.9077 11.9005 28.4105 11.9005C27.9077 11.9005 27.5 11.4929 27.5 10.99Z" stroke="#EAB308" stroke-width="0.8" stroke-miterlimit="10" stroke-linecap="round" stroke-linejoin="round"/>
<path d="M10.4492 18.4807H29.5508M13.1716 20.1681C13.1716 21.2932 12.2595 22.2052 11.1344 22.2052C12.2595 22.2052 13.1716 23.1173 13.1716 24.2424C13.1716 23.1173 14.0836 22.2052 15.2087 22.2052C14.0836 22.2052 13.1716 21.2932 13.1716 20.1681Z" stroke="#EAB308" stroke-width="0.8" stroke-miterlimit="10" stroke-linecap="round" stroke-linejoin="round"/>
</g>
<defs>
<clipPath id="clip0_15056_282">
<rect width="20" height="20" fill="white" transform="translate(10 10)"/>
</clipPath>
</defs>
</svg>
