<svg width="40" height="40" viewBox="0 0 40 40" fill="none" xmlns="http://www.w3.org/2000/svg">
<rect x="0.5" y="0.5" width="39" height="39" rx="3.5" fill="#FEF2F2"/>
<rect x="0.5" y="0.5" width="39" height="39" rx="3.5" stroke="#EF4444"/>
<path d="M20 25.1607C18.6253 25.1631 17.2637 24.8939 15.9934 24.3686C14.723 23.8433 13.569 23.0721 12.5975 22.0994L11.7138 21.215C11.5542 21.0555 11.4276 20.8661 11.3413 20.6576C11.2549 20.4491 11.2104 20.2257 11.2104 20C11.2104 19.7744 11.2549 19.5509 11.3413 19.3425C11.4276 19.134 11.5542 18.9446 11.7138 18.785L12.5975 17.9007C14.5623 15.9402 17.2245 14.8391 20 14.8391C22.7756 14.8391 25.4378 15.9402 27.4025 17.9007L28.2863 18.785C28.4459 18.9446 28.5724 19.134 28.6588 19.3425C28.7452 19.5509 28.7896 19.7744 28.7896 20C28.7896 20.2257 28.7452 20.4491 28.6588 20.6576C28.5724 20.8661 28.4459 21.0555 28.2863 21.215L27.4025 22.0994C26.4311 23.072 25.277 23.8432 24.0067 24.3685C22.7363 24.8938 21.3747 25.1631 20 25.1607ZM20 15.7763C18.7485 15.7741 17.5088 16.0193 16.3522 16.4977C15.1957 16.976 14.145 17.6782 13.2607 18.5638L12.3769 19.4475C12.3043 19.5201 12.2468 19.6062 12.2075 19.701C12.1682 19.7958 12.148 19.8974 12.148 20C12.148 20.1026 12.1682 20.2043 12.2075 20.2991C12.2468 20.3939 12.3043 20.48 12.3769 20.5525L13.2607 21.4363C15.0495 23.221 17.4732 24.2233 20 24.2233C22.5269 24.2233 24.9506 23.221 26.7394 21.4363L27.6232 20.5525C27.6957 20.48 27.7533 20.3939 27.7926 20.2991C27.8318 20.2043 27.852 20.1026 27.852 20C27.852 19.8974 27.8318 19.7958 27.7926 19.701C27.7533 19.6062 27.6957 19.5201 27.6232 19.4475L26.7394 18.5638C25.855 17.6782 24.8043 16.9761 23.6478 16.4977C22.4912 16.0194 21.2516 15.7742 20 15.7763Z" fill="#EF4444"/>
<path d="M20 23.5938C19.2892 23.5938 18.5944 23.383 18.0034 22.9881C17.4124 22.5932 16.9518 22.0319 16.6798 21.3753C16.4078 20.7186 16.3366 19.996 16.4753 19.2989C16.614 18.6018 16.9562 17.9614 17.4588 17.4588C17.9614 16.9562 18.6018 16.614 19.2989 16.4753C19.996 16.3366 20.7186 16.4078 21.3753 16.6798C22.0319 16.9518 22.5932 17.4124 22.9881 18.0034C23.383 18.5944 23.5938 19.2892 23.5938 20C23.5928 20.9528 23.2138 21.8663 22.5401 22.5401C21.8663 23.2138 20.9528 23.5928 20 23.5938ZM20 17.3438C19.4746 17.3438 18.9611 17.4995 18.5243 17.7914C18.0874 18.0833 17.747 18.4981 17.5459 18.9835C17.3449 19.4689 17.2923 20.0029 17.3948 20.5182C17.4973 21.0335 17.7503 21.5068 18.1217 21.8783C18.4932 22.2497 18.9665 22.5027 19.4818 22.6052C19.9971 22.7077 20.5311 22.6551 21.0165 22.4541C21.5019 22.253 21.9167 21.9126 22.2086 21.4757C22.5005 21.0389 22.6563 20.5254 22.6563 20C22.6554 19.2958 22.3753 18.6206 21.8773 18.1227C21.3794 17.6247 20.7042 17.3446 20 17.3438Z" fill="#EF4444"/>
<path d="M19.0625 20.4688C18.7844 20.4688 18.5125 20.3863 18.2812 20.2318C18.05 20.0772 17.8697 19.8576 17.7633 19.6006C17.6568 19.3437 17.629 19.0609 17.6833 18.7882C17.7375 18.5154 17.8714 18.2648 18.0681 18.0681C18.2648 17.8715 18.5154 17.7375 18.7881 17.6833C19.0609 17.629 19.3437 17.6569 19.6006 17.7633C19.8576 17.8697 20.0772 18.05 20.2317 18.2812C20.3863 18.5125 20.4687 18.7844 20.4687 19.0625C20.4682 19.4353 20.3199 19.7927 20.0563 20.0563C19.7927 20.3199 19.4353 20.4683 19.0625 20.4688ZM19.0625 18.5938C18.9698 18.5938 18.8791 18.6212 18.8021 18.6727C18.725 18.7243 18.6649 18.7975 18.6294 18.8831C18.5939 18.9688 18.5847 19.063 18.6027 19.1539C18.6208 19.2449 18.6655 19.3284 18.731 19.394C18.7966 19.4595 18.8801 19.5042 18.971 19.5222C19.062 19.5403 19.1562 19.531 19.2419 19.4956C19.3275 19.4601 19.4007 19.4 19.4522 19.3229C19.5037 19.2458 19.5312 19.1552 19.5312 19.0625C19.5311 18.9382 19.4816 18.8191 19.3938 18.7312C19.3059 18.6434 19.1868 18.5939 19.0625 18.5938ZM20 13.5938C19.8757 13.5938 19.7564 13.5444 19.6685 13.4565C19.5806 13.3685 19.5312 13.2493 19.5312 13.125V11.875C19.5312 11.7507 19.5806 11.6315 19.6685 11.5435C19.7564 11.4556 19.8757 11.4062 20 11.4062C20.1243 11.4062 20.2435 11.4556 20.3314 11.5435C20.4193 11.6315 20.4687 11.7507 20.4687 11.875V13.125C20.4687 13.2493 20.4193 13.3685 20.3314 13.4565C20.2435 13.5444 20.1243 13.5938 20 13.5938ZM23.7494 14.2188C23.6695 14.2186 23.5911 14.1981 23.5214 14.1592C23.4517 14.1203 23.3931 14.0642 23.3512 13.9963C23.3092 13.9284 23.2853 13.8509 23.2817 13.7711C23.2781 13.6914 23.295 13.612 23.3306 13.5406L23.9556 12.2906C24.0117 12.1804 24.1091 12.0968 24.2266 12.0581C24.3441 12.0194 24.4721 12.0286 24.5827 12.0839C24.6934 12.1391 24.7777 12.2359 24.8174 12.353C24.857 12.4702 24.8487 12.5983 24.7944 12.7094L24.1694 13.9594C24.1304 14.0374 24.0705 14.103 23.9963 14.1488C23.9221 14.1946 23.8366 14.2189 23.7494 14.2188ZM16.2506 14.2188C16.1634 14.2189 16.0779 14.1946 16.0037 14.1488C15.9295 14.103 15.8696 14.0374 15.8306 13.9594L15.2056 12.7094C15.1512 12.5983 15.1429 12.4702 15.1826 12.353C15.2222 12.2359 15.3066 12.1391 15.4172 12.0839C15.5279 12.0286 15.6559 12.0194 15.7734 12.0581C15.8908 12.0968 15.9883 12.1804 16.0444 12.2906L16.6694 13.5406C16.705 13.6121 16.7219 13.6915 16.7182 13.7713C16.7146 13.8511 16.6907 13.9286 16.6486 13.9966C16.6066 14.0645 16.548 14.1206 16.4782 14.1594C16.4084 14.1983 16.3299 14.2187 16.25 14.2188H16.2506ZM20 28.5938C19.8757 28.5938 19.7564 28.5444 19.6685 28.4565C19.5806 28.3685 19.5312 28.2493 19.5312 28.125V26.875C19.5312 26.7507 19.5806 26.6315 19.6685 26.5435C19.7564 26.4556 19.8757 26.4062 20 26.4062C20.1243 26.4062 20.2435 26.4556 20.3314 26.5435C20.4193 26.6315 20.4687 26.7507 20.4687 26.875V28.125C20.4687 28.2493 20.4193 28.3685 20.3314 28.4565C20.2435 28.5444 20.1243 28.5938 20 28.5938ZM24.3756 27.9688C24.2884 27.9689 24.2029 27.9446 24.1287 27.8988C24.0545 27.853 23.9946 27.7874 23.9556 27.7094L23.3306 26.4594C23.2762 26.3483 23.2679 26.2202 23.3076 26.103C23.3472 25.9859 23.4316 25.8891 23.5422 25.8339C23.6529 25.7786 23.7809 25.7694 23.8984 25.8081C24.0158 25.8468 24.1133 25.9304 24.1694 26.0406L24.7944 27.2906C24.83 27.3621 24.8469 27.4415 24.8432 27.5213C24.8396 27.6011 24.8157 27.6786 24.7736 27.7466C24.7316 27.8145 24.673 27.8706 24.6032 27.9094C24.5334 27.9483 24.4555 27.9687 24.3756 27.9688ZM15.6244 27.9688C15.5445 27.9686 15.4661 27.9482 15.3964 27.9092C15.3267 27.8703 15.2681 27.8142 15.2262 27.7463C15.1842 27.6784 15.1603 27.6009 15.1567 27.5211C15.1531 27.4414 15.17 27.362 15.2056 27.2906L15.8306 26.0406C15.8867 25.9304 15.9841 25.8468 16.1016 25.8081C16.2191 25.7694 16.3471 25.7786 16.4577 25.8339C16.5684 25.8891 16.6527 25.9859 16.6924 26.103C16.732 26.2202 16.7237 26.3483 16.6694 26.4594L16.0444 27.7094C16.0054 27.7874 15.9455 27.853 15.8713 27.8988C15.7971 27.9446 15.7116 27.9689 15.6244 27.9688Z" fill="#EF4444"/>
</svg>
